<svg width="98" height="116" viewBox="0 0 98 116" fill="none" xmlns="http://www.w3.org/2000/svg">
<g filter="url(#filter0_d)">
<path d="M39.916 66.8319C56.9904 66.8319 70.8319 52.9904 70.8319 35.916C70.8319 18.8416 56.9904 5 39.916 5C22.8416 5 9 18.8416 9 35.916C9 52.9904 22.8416 66.8319 39.916 66.8319Z" fill="#F4C0CB"/>
<path d="M39.4817 5.00354C22.6434 5.17516 9 18.9047 9 35.7234C9 40.2714 10.0362 44.6477 11.7632 48.5091C16.3398 59.4928 25.752 70.7338 36.6321 83.4337C38.3592 85.4931 41.5541 85.4931 43.2811 83.4337C54.0749 70.8197 63.5735 59.4928 68.0637 48.5091C69.8771 44.5619 70.9133 40.1856 70.8269 35.5518C70.7406 18.5615 56.6655 4.74611 39.4817 5.00354ZM39.9135 58.2056C27.3926 58.2056 17.2896 48.1659 17.2896 35.7234C17.2896 23.281 27.3926 13.2413 39.9135 13.2413C52.4343 13.2413 62.5373 23.281 62.5373 35.7234C62.5373 48.1659 52.4343 58.2056 39.9135 58.2056Z" fill="#F4C0CB"/>
</g>
<defs>
<filter id="filter0_d" x="0.188023" y="0.594011" width="97.0798" height="115.226" filterUnits="userSpaceOnUse" color-interpolation-filters="sRGB">
<feFlood flood-opacity="0" result="BackgroundImageFix"/>
<feColorMatrix in="SourceAlpha" type="matrix" values="0 0 0 0 0 0 0 0 0 0 0 0 0 0 0 0 0 0 127 0"/>
<feOffset dx="8.81198" dy="13.218"/>
<feGaussianBlur stdDeviation="8.81198"/>
<feColorMatrix type="matrix" values="0 0 0 0 0 0 0 0 0 0 0 0 0 0 0 0 0 0 0.08 0"/>
<feBlend mode="normal" in2="BackgroundImageFix" result="effect1_dropShadow"/>
<feBlend mode="normal" in="SourceGraphic" in2="effect1_dropShadow" result="shape"/>
</filter>
</defs>
</svg>
