<?xml version="1.0" encoding="UTF-8" standalone="no"?><!DOCTYPE svg PUBLIC "-//W3C//DTD SVG 1.1//EN" "http://www.w3.org/Graphics/SVG/1.1/DTD/svg11.dtd"><svg width="100%" height="100%" viewBox="0 0 30 30" version="1.1" xmlns="http://www.w3.org/2000/svg" xmlns:xlink="http://www.w3.org/1999/xlink" xml:space="preserve" style="fill-rule:evenodd;clip-rule:evenodd;stroke-linecap:round;stroke-linejoin:round;stroke-miterlimit:1.41421;"><g><circle cx="14.657" cy="14.657" r="13.88" style="fill:none;stroke:#000;stroke-width:1.55px;"/><path d="M8.418,20.804c0.098,0.087 0.192,0.172 0.277,0.255c0.253,0.244 0.685,0.374 1.248,0.374c1.654,0 4.432,-1.09 6.913,-3.525c1.491,-1.491 2.635,-3.23 3.223,-4.897c0.538,-1.528 0.53,-2.77 -0.023,-3.322c-0.111,-0.112 -0.233,-0.251 -0.362,-0.4c-0.486,-0.558 -1.091,-1.252 -1.868,-1.252c-0.492,0 -0.971,0.284 -1.422,0.846c-1.526,1.898 -1.319,2.388 -0.282,3.409c0.058,0.057 0.119,0.116 0.181,0.179c0.259,0.259 -0.383,1.667 -1.8,3.084c-1.028,1.028 -2.247,1.803 -2.836,1.803c-0.137,0 -0.181,-0.044 -0.195,-0.058c-0.065,-0.064 -0.128,-0.129 -0.19,-0.192c-0.374,-0.385 -0.761,-0.784 -1.347,-0.784c-0.528,0 -1.123,0.335 -1.874,1.052c-0.56,0.534 -0.828,1.05 -0.821,1.578c0.011,0.795 0.659,1.38 1.178,1.85Z"/></g></svg>